<svg xmlns="http://www.w3.org/2000/svg" viewBox="0 0 800 500">
  <!-- Background -->
  <rect width="800" height="500" fill="#f8f9fa" rx="10" ry="10"/>
  
  <!-- Header -->
  <rect x="50" y="30" width="700" height="60" fill="#4285f4" rx="8" ry="8"/>
  <text x="400" y="70" font-family="Arial, sans-serif" font-size="26" font-weight="bold" fill="white" text-anchor="middle">Step 1: Access Google Calendar</text>
  
  <!-- Web browser window -->
  <rect x="100" y="120" width="600" height="320" fill="white" stroke="#dadce0" stroke-width="2" rx="6" ry="6"/>
  
  <!-- Browser toolbar -->
  <rect x="100" y="120" width="600" height="40" fill="#f1f3f4" stroke="#dadce0" stroke-width="2" rx="6" ry="6"/>
  <circle cx="130" cy="140" r="8" fill="#ea4335"/>
  <circle cx="160" cy="140" r="8" fill="#fbbc04"/>
  <circle cx="190" cy="140" r="8" fill="#34a853"/>
  
  <!-- Address bar -->
  <rect x="230" y="128" width="420" height="24" fill="white" stroke="#dadce0" stroke-width="1" rx="12" ry="12"/>
  <text x="260" y="145" font-family="Arial, sans-serif" font-size="14" fill="#5f6368">calendar.google.com</text>
  <path d="M245,140 L252,133 L245,126" fill="none" stroke="#5f6368" stroke-width="2" stroke-linecap="round" stroke-linejoin="round"/>
  <path d="M670,140 C670,137 673,134 676,134 C679,134 682,137 682,140 C682,143 679,146 676,146 C673,146 670,143 670,140 Z" fill="none" stroke="#5f6368" stroke-width="2"/>
  
  <!-- Google Services Bar -->
  <rect x="100" y="160" width="600" height="40" fill="#ffffff" stroke="#dadce0" stroke-width="1"/>
  
  <!-- Google Logo -->
  <g transform="translate(120, 180) scale(0.7)">
    <path d="M15,8 L15,18 L8,18 C3.6,18 0,14.4 0,10 C0,5.6 3.6,2 8,2 C10.1,2 12,2.8 13.4,4.2 L16.9,0.7 C14.8,-1.3 11.5,-2.1 8,-2.1 C1.6,-2.1 -4,3.5 -4,10 C-4,16.5 1.6,22.1 8,22.1 L19,22.1 L19,8 L15,8 Z" fill="#ea4335"/>
    <path d="M39.3,10 C39.3,9.3 39.2,8.7 39.1,8 L26,8 L26,14.1 L33.5,14.1 C33.1,16.3 31.1,20 26,20 C21.6,20 18,16.3 18,11 C18,5.7 21.6,2 26,2 C28.8,2 30.8,3.1 32,4.3 L36.2,0.2 C33.3,-2.6 29.9,-4 26,-4 C17.3,-4 10,3.3 10,11 C10,18.7 17.3,26 26,26 C35,26 42,18.7 42,11 C42,10.7 42,10.3 42,10 L39.3,10 Z" fill="#4285f4"/>
    <path d="M59,8 L59,4 L55,4 L55,8 L51,8 L51,12 L55,12 L55,16 L59,16 L59,12 L63,12 L63,8 L59,8 Z" fill="#34a853"/>
    <path d="M82,10 C82,3.3 76.7,-2 70,-2 C63.3,-2 58,3.3 58,10 C58,16.7 63.3,22 70,22 C76.7,22 82,16.7 82,10 Z M74,10 C74,12.2 72.2,14 70,14 C67.8,14 66,12.2 66,10 C66,7.8 67.8,6 70,6 C72.2,6 74,7.8 74,10 Z" fill="#fbbc04"/>
    <path d="M98,10 C98,3.3 92.7,-2 86,-2 C79.3,-2 74,3.3 74,10 C74,16.7 79.3,22 86,22 C92.7,22 98,16.7 98,10 Z M90,10 C90,12.2 88.2,14 86,14 C83.8,14 82,12.2 82,10 C82,7.8 83.8,6 86,6 C88.2,6 90,7.8 90,10 Z" fill="#ea4335"/>
  </g>
  
  <!-- Calendar Icon -->
  <g transform="translate(400, 260)">
    <rect x="-60" y="-60" width="120" height="120" fill="#4285f4" rx="10" ry="10"/>
    <rect x="-50" y="-50" width="100" height="100" fill="white" rx="5" ry="5"/>
    <rect x="-50" y="-50" width="100" height="20" fill="#4285f4" rx="5" ry="5"/>
    <text x="0" y="20" font-family="Arial, sans-serif" font-size="50" font-weight="bold" fill="#4285f4" text-anchor="middle">31</text>
  </g>
  
  <!-- Mouse cursor -->
  <g transform="translate(400, 260)">
    <path d="M70,70 L60,50 L80,55 L70,70" fill="black"/>
    <animateTransform
      attributeName="transform"
      type="translate"
      from="300,200"
      to="400,260"
      begin="0.5s"
      dur="1.5s"
      fill="freeze"/>
  </g>
  
  <!-- Instructions -->
  <text x="400" y="450" font-family="Arial, sans-serif" font-size="18" font-weight="bold" fill="#202124" text-anchor="middle">Open your web browser and go to calendar.google.com</text>
</svg>
